GRFsquat.mot
version=1
nRows=19
nColumns=37
inDegrees=yes
endheader
time	ground_force_calcn_l_vx	ground_force_calcn_l_vy	ground_force_calcn_l_vz	ground_force_calcn_l_px	ground_force_calcn_l_py	ground_force_calcn_l_pz	ground_torque_calcn_l_vx	ground_torque_calcn_l_vy	ground_torque_calcn_l_vz	ground_force_calcn_r_vx	ground_force_calcn_r_vy	ground_force_calcn_r_vz	ground_force_calcn_r_px	ground_force_calcn_r_py	ground_force_calcn_r_pz	ground_torque_calcn_r_vx	ground_torque_calcn_r_vy	ground_torque_calcn_r_vz	ground_force_hand_l_vx	ground_force_hand_l_vy	ground_force_hand_l_vz	ground_force_hand_l_px	ground_force_hand_l_py	ground_force_hand_l_pz	ground_torque_hand_l_vx	ground_torque_hand_l_vy	ground_torque_hand_l_vz	ground_force_hand_r_vx	ground_force_hand_r_vy	ground_force_hand_r_vz	ground_force_hand_r_px	ground_force_hand_r_py	ground_force_hand_r_pz	ground_torque_hand_r_vx	ground_torque_hand_r_vy	ground_torque_hand_r_vz
 0.999986      6.155633      567.1621      49.46264      1.098012 -6.765422e-17    -0.4807565             0   -0.06454423             0      8.954582      515.4115     -43.85569       1.12098 -6.938894e-17  -0.000224503             0     0.2275428             0             0             0             0      1.420431     0.6580214    -0.3106675             0             0             0             0             0             0      1.414389       0.70953     -0.198271             0             0             0
 1.016653       6.24817      565.7971      47.51009      1.100484 -6.765422e-17    -0.4811234             0   -0.06157003             0      11.07153      513.7731     -42.05954      1.121862 -6.938894e-17  0.0001526189             0     0.2328762             0             0             0             0      1.421323     0.6553252    -0.3116769             0             0             0             0             0             0       1.41565     0.7090385    -0.1985104             0             0             0
 1.033319      5.855585      562.3641      45.29173      1.102752 -6.765422e-17     -0.481434             0   -0.05941098             0      13.05493      511.9315     -40.16359      1.122183 -6.938894e-17  0.0002961195             0     0.2385292             0             0             0             0      1.422837     0.6532744    -0.3130541             0             0             0             0             0             0      1.417543     0.7092733    -0.1986284             0             0             0
 1.049986      5.046964      557.3375      43.36056       1.10491 -6.765422e-17    -0.4817106             0   -0.05556135             0      14.82095      509.5762     -38.53573      1.122255 -6.938894e-17  0.0002916578             0     0.2446768             0             0             0             0      1.425003     0.6519141    -0.3148929             0             0             0             0             0             0      1.420021     0.7101304    -0.1985939             0             0             0
 1.066652      3.917814      551.2297      42.26196      1.107151 -6.765422e-17    -0.4819817             0   -0.04767875             0      16.28641      506.3368     -37.55513      1.122337 -6.938894e-17  0.0001957285             0     0.2512121             0             0             0             0      1.427844     0.6513009    -0.3173187             0             0             0             0             0             0      1.423039     0.7115118    -0.1983542             0             0             0
 1.083319      2.579482      544.5052      42.39468      1.109564 -6.765422e-17    -0.4822339             0   -0.03420625             0      17.36034      501.8547     -37.50517      1.122703 -6.938894e-17  5.657767e-05             0     0.2577778             0             0             0             0      1.431378       0.65148    -0.3204757             0             0             0             0             0             0      1.426582     0.7133134    -0.1978402             0             0             0
 1.099986      1.148396      537.5062      43.89469      1.112434 -6.765422e-17    -0.4825146             0   -0.01491371             0      17.93672      495.8637     -38.48235        1.1237 -6.938894e-17 -5.929245e-05             0      0.263841             0             0             0             0      1.435614     0.6524613    -0.3245018             0             0             0             0             0             0      1.430665     0.7154181    -0.1969704             0             0             0
 1.116652    -0.2645296      530.3952      46.58603      1.115553 -6.765422e-17    -0.4828122             0   0.008825787             0      17.89263      488.2674     -40.36214      1.125772 -6.938894e-17 -2.417688e-05             0     0.2687432             0             0             0             0      1.440524     0.6541989    -0.3294962             0             0             0             0             0             0       1.43532     0.7176885    -0.1956591             0             0             0
 1.133319     -1.564268       523.121      50.01827      1.118407 -6.765422e-17    -0.4830558             0    0.03415017             0      17.09471      479.1977     -42.84018      1.129395 -6.938894e-17  0.0004913472             0     0.2716983             0             0             0             0      1.446003     0.6565764    -0.3354871             0             0             0             0             0             0       1.44056     0.7199601    -0.1938244             0             0             0
 1.149985     -2.681202      515.4156      53.57544       1.12072 -6.938894e-17    -0.4831084             0    0.05722029             0      15.41503      469.0403     -45.53368      1.134776 -6.938894e-17   0.001699361             0     0.2717802             0             0             0             0      1.451819     0.6594067    -0.3424138             0             0             0             0             0             0       1.44632     0.7220455    -0.1913908             0             0             0
 1.166652     -3.578061      506.8254      56.61487      1.122521 -6.938894e-17    -0.4828973             0    0.07400809             0      12.75449      458.4154     -48.10238      1.141304 -6.938894e-17   0.003216435             0     0.2679867             0             0             0             0      1.457612     0.6624513    -0.3501353             0             0             0             0             0             0      1.452431       0.72373    -0.1882938             0             0             0
 1.183319     -4.251942       496.779       58.5909      1.123757 -6.938894e-17    -0.4824883             0    0.08114879             0      9.069129      448.1113     -50.34486      1.146741 -6.938894e-17   0.004495645             0     0.2594234             0             0             0             0      1.462926     0.6654612    -0.3584647             0             0             0             0             0             0      1.458604     0.7247869    -0.1844723             0             0             0
 1.199985     -4.729504      484.6921      59.13574      1.124306 -6.938894e-17    -0.4818891             0    0.07661848             0      4.393651      438.9755     -52.24207      1.148957 -6.938894e-17   0.005095387             0     0.2455492             0             0             0             0       1.46727     0.6682291    -0.3672139             0             0             0             0             0             0      1.464433     0.7250079    -0.1798523             0             0             0
 1.216652     -5.055156      470.1048      58.09319      1.124246 -6.938894e-17    -0.4811901             0    0.06004194             0     -1.142957      431.7736     -53.94198      1.149449 -6.938894e-17   0.005657659             0     0.2263404             0             0             0             0        1.4702     0.6706346    -0.3762345             0             0             0             0             0             0      1.469429     0.7242406    -0.1743339             0             0             0
 1.233318     -5.274723      452.8461      55.51785      1.123665 -6.938894e-17    -0.4804867             0    0.03253492             0      -7.31269      427.0333     -55.69528      1.148338 -7.112366e-17     0.0060676             0     0.2022308             0             0             0             0      1.471385     0.6726643    -0.3854454             0             0             0             0             0             0      1.473059     0.7224257    -0.1677916             0             0             0
 1.249985     -5.419803      433.2091      51.65789      1.122707 -6.938894e-17    -0.4798199             0   -0.00387865             0     -13.79529       424.889     -57.76061      1.144539 -6.938894e-17    0.00563385             0     0.1737836             0             0             0             0      1.470639     0.6744028    -0.3948494             0             0             0             0             0             0      1.474826     0.7196189    -0.1600956             0             0             0
 1.266652     -5.499765      412.1052      46.93437       1.12172 -6.938894e-17    -0.4792442             0   -0.04709755             0     -20.19611      424.9516     -60.30137      1.139407 -6.938894e-17   0.004784284             0     0.1411891             0             0             0             0      1.467943     0.6760001    -0.4045376             0             0             0             0             0             0      1.474356     0.7160105    -0.1511399             0             0             0
 1.283318     -5.507536      391.1468      41.92011      1.120947 -6.938894e-17    -0.4787701             0   -0.09574534             0      -26.0751      426.2332     -63.29692      1.134284 -6.938894e-17   0.004158582             0      0.103803             0             0             0             0       1.46341      0.677629     -0.414675             0             0             0             0             0             0      1.471452     0.7118262    -0.1408825             0             0             0
 1.299985     -5.441655       372.599       37.3095      1.120549 -6.938894e-17    -0.4784267             0    -0.1496391             0     -30.98796      427.1653     -66.49018      1.129957 -6.938894e-17   0.003615293             0    0.05999056             0             0             0             0      1.457233     0.6794418    -0.4254669             0             0             0             0             0             0      1.466112      0.707327    -0.1293389             0             0             0
